<svg version="1.1" viewBox="0.0 0.0 346.254593175853 338.9448818897638" fill="none" stroke="none" stroke-linecap="square" stroke-miterlimit="10" xmlns:xlink="http://www.w3.org/1999/xlink" xmlns="http://www.w3.org/2000/svg"><clipPath id="p.0"><path d="m0 0l346.2546 0l0 338.9449l-346.2546 0l0 -338.9449z" clip-rule="nonzero"/></clipPath><g clip-path="url(#p.0)"><path fill="#000000" fill-opacity="0.0" d="m0 0l346.2546 0l0 338.9449l-346.2546 0z" fill-rule="evenodd"/><path fill="#000000" fill-opacity="0.0" d="m425.40158 229.10236l109.19687 0l0 261.7953l-109.19687 0z" fill-rule="evenodd"/><path fill="#000000" d="m0 56.26359l0 0c0 -31.073523 25.19007 -56.26359 56.26359 -56.26359l233.1421 0l0 0c14.922028 0 29.23291 5.9277544 39.784363 16.479225c10.551483 10.55147 16.479218 24.862335 16.479218 39.784367l0 225.04762c0 31.073517 -25.190063 56.26358 -56.26358 56.26358l-233.1421 0c-31.073523 0 -56.26359 -25.190063 -56.26359 -56.26358z" fill-rule="evenodd"/><path stroke="#000000" stroke-width="1.0" stroke-linejoin="round" stroke-linecap="butt" d="m0 56.26359l0 0c0 -31.073523 25.19007 -56.26359 56.26359 -56.26359l233.1421 0l0 0c14.922028 0 29.23291 5.9277544 39.784363 16.479225c10.551483 10.55147 16.479218 24.862335 16.479218 39.784367l0 225.04762c0 31.073517 -25.190063 56.26358 -56.26358 56.26358l-233.1421 0c-31.073523 0 -56.26359 -25.190063 -56.26359 -56.26358z" fill-rule="evenodd"/><path fill="#000000" fill-opacity="0.0" d="m53.49616 37.889763l238.67715 0l0 261.79526l-238.67715 0z" fill-rule="evenodd"/><path fill="#ffffff" d="m57.90241 276.48352l0 -4.0q8.000004 -0.796875 13.593754 -4.703125q5.59375 -3.890625 8.59375 -13.296875q3.0 -9.390625 3.0 -26.390625l0 -109.60938q0 -7.390625 -1.09375 -10.890625q-1.09375 -3.5 -4.296875 -4.796875q-3.203125 -1.3125 -9.609375 -1.5l0 -4.0q5.0 0.1875 13.09375 0.390625q8.109375 0.203125 17.109375 0.203125q9.0 0 17.5 -0.203125q8.5 -0.203125 14.109367 -0.390625l0 4.0q-6.2031174 0.1875 -9.515617 1.5q-3.296875 1.296875 -4.390625 4.796875q-1.09375 3.5 -1.09375 10.890625l0 73.20313q0 8.203125 0 17.703125q0 9.5 -0.703125 18.5q-0.703125 9.0 -2.703125 16.0q-4.0 13.796875 -17.296875 23.1875q-13.296875 9.40625 -36.29688 9.40625zm215.19064 -179.1875l0 3.796875q-6.390625 1.390625 -13.703125 5.59375q-7.296875 4.203125 -15.296875 13.609375l-37.59375 44.796883l11.59375 -16.609375l47.609375 74.203125q2.796875 4.609375 5.984375 7.40625q3.203125 2.796875 8.40625 4.796875l0 4.0q-7.0 -0.40625 -15.609375 -0.5q-8.59375 -0.09375 -15.59375 -0.09375q-4.1875 0 -10.1875 0.09375q-6.0 0.09375 -15.203125 0.5l0 -4.0q8.203125 -0.40625 9.890625 -2.296875q1.703125 -1.90625 -1.5 -6.703125l-29.0 -47.0q-2.796875 -4.59375 -5.0 -6.890625q-2.1875 -2.3125 -4.390625 -3.203125q-2.203125 -0.90625 -5.796875 -1.109375l0 -4.203125q8.796875 -0.1875 15.6875 -4.78125q6.90625 -4.609375 15.109375 -14.015625l11.796875 -14.203125q7.59375 -9.000008 8.890625 -15.500008q1.3125 -6.5 -2.59375 -10.09375q-3.890625 -3.59375 -11.890625 -3.796875l0 -3.796875q5.0 0.1875 9.5 0.296875q4.5 0.09375 9.390625 0.203125q4.90625 0.09375 10.703125 0.09375q5.796875 0 10.5 -0.203125q4.703125 -0.203125 8.296875 -0.390625zm-69.203125 0l0 4.0q-6.390625 0.1875 -9.703125 1.5q-3.296875 1.296875 -4.296875 4.796875q-1.0 3.5 -1.0 10.890625l0 99.20313q0 7.203125 1.09375 10.8125q1.109375 3.59375 4.3125 4.796875q3.203125 1.1875 9.59375 1.59375l0 4.0q-5.390625 -0.40625 -13.59375 -0.5q-8.203125 -0.09375 -16.59375 -0.09375q-9.609375 0 -18.109375 0.09375q-8.5 0.09375 -13.5 0.5l0 -4.0q6.40625 -0.40625 9.59375 -1.59375q3.203125 -1.203125 4.296875 -4.796875q1.109375 -3.609375 1.109375 -10.8125l0 -99.20313q0 -7.390625 -1.109375 -10.890625q-1.09375 -3.5 -4.390625 -4.796875q-3.296875 -1.3125 -9.5 -1.5l0 -4.0q5.0 0.1875 13.5 0.390625q8.5 0.203125 18.109375 0.203125q8.390625 0 16.59375 -0.203125q8.203125 -0.203125 13.59375 -0.390625z" fill-rule="nonzero"/></g></svg>